{
	"asset":{
		"generator":"Khronos glTF Blender I/O v4.1.63",
		"version":"2.0"
	},
	"scene":0,
	"scenes":[
		{
			"name":"Scene",
			"nodes":[
				0,
				1,
				2,
				4,
				6
			]
		}
	],
	"nodes":[
		{
			"mesh":0,
			"name":"body",
			"rotation":[
				0.7071068286895752,
				0,
				0,
				0.7071068286895752
			],
			"scale":[
				0.009999999776482582,
				0.009999999776482582,
				0.009999999776482582
			]
		},
		{
			"mesh":1,
			"name":"yellow_unifrom",
			"rotation":[
				0.7071068286895752,
				0,
				0,
				0.7071068286895752
			],
			"scale":[
				0.009999999776482582,
				0.009999999776482582,
				0.009999999776482582
			]
		},
		{
			"mesh":2,
			"name":"red_unifrom",
			"rotation":[
				0.7071068286895752,
				0,
				0,
				0.7071068286895752
			],
			"scale":[
				0.009999999776482582,
				0.009999999776482582,
				0.009999999776482582
			]
		},
		{
			"mesh":3,
			"name":"eye_L.001"
		},
		{
			"children":[
				3
			],
			"name":"eye_L",
			"rotation":[
				0.7071068286895752,
				0,
				0,
				0.7071068286895752
			],
			"scale":[
				0.009999999776482582,
				0.009999999776482582,
				0.009999999776482582
			]
		},
		{
			"mesh":4,
			"name":"eye_R.001"
		},
		{
			"children":[
				5
			],
			"name":"eye_R",
			"rotation":[
				0.7071068286895752,
				0,
				0,
				0.7071068286895752
			],
			"scale":[
				0.009999999776482582,
				0.009999999776482582,
				0.009999999776482582
			]
		}
	],
	"materials":[
		{
			"doubleSided":true,
			"name":"lambert3",
			"pbrMetallicRoughness":{
				"baseColorTexture":{
					"index":0
				},
				"metallicFactor":0,
				"roughnessFactor":0.5527864098548889
			}
		},
		{
			"doubleSided":true,
			"name":"lambert13",
			"pbrMetallicRoughness":{
				"baseColorFactor":[
					0.5389999747276306,
					0.3529461920261383,
					0,
					1
				],
				"metallicFactor":0,
				"roughnessFactor":0.5527864098548889
			}
		},
		{
			"doubleSided":true,
			"name":"lambert14",
			"pbrMetallicRoughness":{
				"baseColorFactor":[
					0.20800000429153442,
					0,
					0.04297273978590965,
					1
				],
				"metallicFactor":0,
				"roughnessFactor":0.5527864098548889
			}
		},
		{
			"doubleSided":true,
			"name":"iboll_RP1X2QGM0LX193Y1QTJ25IL9N_R_eyeball_eyeba1",
			"pbrMetallicRoughness":{
				"baseColorTexture":{
					"index":1
				},
				"metallicFactor":0.5,
				"roughnessFactor":0.65576171875
			}
		}
	],
	"meshes":[
		{
			"name":"Mesh.077",
			"primitives":[
				{
					"attributes":{
						"POSITION":0,
						"NORMAL":1,
						"TEXCOORD_0":2
					},
					"indices":3,
					"material":0
				}
			]
		},
		{
			"name":"Mesh.078",
			"primitives":[
				{
					"attributes":{
						"POSITION":4,
						"NORMAL":5,
						"TEXCOORD_0":6
					},
					"indices":7,
					"material":1
				}
			]
		},
		{
			"name":"Mesh.079",
			"primitives":[
				{
					"attributes":{
						"POSITION":8,
						"NORMAL":9,
						"TEXCOORD_0":10
					},
					"indices":11,
					"material":2
				}
			]
		},
		{
			"name":"Mesh.081",
			"primitives":[
				{
					"attributes":{
						"POSITION":12,
						"NORMAL":13,
						"TEXCOORD_0":14
					},
					"indices":15,
					"material":3
				}
			]
		},
		{
			"name":"Mesh.082",
			"primitives":[
				{
					"attributes":{
						"POSITION":16,
						"NORMAL":17,
						"TEXCOORD_0":18
					},
					"indices":19,
					"material":3
				}
			]
		}
	],
	"textures":[
		{
			"sampler":0,
			"source":0
		},
		{
			"sampler":0,
			"source":1
		}
	],
	"images":[
		{
			"mimeType":"image/jpeg",
			"name":"Body_Base_color",
			"uri":"Body_Base_color.jpg"
		},
		{
			"mimeType":"image/jpeg",
			"name":"eye_Base",
			"uri":"eye_Base.jpg"
		}
	],
	"accessors":[
		{
			"bufferView":0,
			"componentType":5126,
			"count":53946,
			"max":[
				16.0935115814209,
				2.119476318359375,
				-0.05017852783203125
			],
			"min":[
				-16.114797592163086,
				-7.044041633605957,
				-45.53843688964844
			],
			"type":"VEC3"
		},
		{
			"bufferView":1,
			"componentType":5126,
			"count":53946,
			"type":"VEC3"
		},
		{
			"bufferView":2,
			"componentType":5126,
			"count":53946,
			"type":"VEC2"
		},
		{
			"bufferView":3,
			"componentType":5123,
			"count":80982,
			"type":"SCALAR"
		},
		{
			"bufferView":4,
			"componentType":5126,
			"count":1032,
			"max":[
				5.558178901672363,
				-0.40949544310569763,
				-8.146387100219727
			],
			"min":[
				-5.648123264312744,
				-7.257354736328125,
				-28.325963973999023
			],
			"type":"VEC3"
		},
		{
			"bufferView":5,
			"componentType":5126,
			"count":1032,
			"type":"VEC3"
		},
		{
			"bufferView":6,
			"componentType":5126,
			"count":1032,
			"type":"VEC2"
		},
		{
			"bufferView":7,
			"componentType":5123,
			"count":4230,
			"type":"SCALAR"
		},
		{
			"bufferView":8,
			"componentType":5126,
			"count":2641,
			"max":[
				5.731206893920898,
				1.120017170906067,
				-16.61277961730957
			],
			"min":[
				-5.310315132141113,
				-7.558052062988281,
				-39.16248321533203
			],
			"type":"VEC3"
		},
		{
			"bufferView":9,
			"componentType":5126,
			"count":2641,
			"type":"VEC3"
		},
		{
			"bufferView":10,
			"componentType":5126,
			"count":2641,
			"type":"VEC2"
		},
		{
			"bufferView":11,
			"componentType":5123,
			"count":14304,
			"type":"SCALAR"
		},
		{
			"bufferView":12,
			"componentType":5126,
			"count":306,
			"max":[
				-0.45282652974128723,
				-0.4623560905456543,
				-41.869388580322266
			],
			"min":[
				-1.0580112934112549,
				-1.0927447080612183,
				-42.47434616088867
			],
			"type":"VEC3"
		},
		{
			"bufferView":13,
			"componentType":5126,
			"count":306,
			"type":"VEC3"
		},
		{
			"bufferView":14,
			"componentType":5126,
			"count":306,
			"type":"VEC2"
		},
		{
			"bufferView":15,
			"componentType":5123,
			"count":1728,
			"type":"SCALAR"
		},
		{
			"bufferView":16,
			"componentType":5126,
			"count":306,
			"max":[
				1.0513641834259033,
				-0.4327334761619568,
				-41.869388580322266
			],
			"min":[
				0.4462597370147705,
				-1.065050482749939,
				-42.47434616088867
			],
			"type":"VEC3"
		},
		{
			"bufferView":17,
			"componentType":5126,
			"count":306,
			"type":"VEC3"
		},
		{
			"bufferView":18,
			"componentType":5126,
			"count":306,
			"type":"VEC2"
		},
		{
			"bufferView":19,
			"componentType":5123,
			"count":1728,
			"type":"SCALAR"
		}
	],
	"bufferViews":[
		{
			"buffer":0,
			"byteLength":647352,
			"byteOffset":0,
			"target":34962
		},
		{
			"buffer":0,
			"byteLength":647352,
			"byteOffset":647352,
			"target":34962
		},
		{
			"buffer":0,
			"byteLength":431568,
			"byteOffset":1294704,
			"target":34962
		},
		{
			"buffer":0,
			"byteLength":161964,
			"byteOffset":1726272,
			"target":34963
		},
		{
			"buffer":0,
			"byteLength":12384,
			"byteOffset":1888236,
			"target":34962
		},
		{
			"buffer":0,
			"byteLength":12384,
			"byteOffset":1900620,
			"target":34962
		},
		{
			"buffer":0,
			"byteLength":8256,
			"byteOffset":1913004,
			"target":34962
		},
		{
			"buffer":0,
			"byteLength":8460,
			"byteOffset":1921260,
			"target":34963
		},
		{
			"buffer":0,
			"byteLength":31692,
			"byteOffset":1929720,
			"target":34962
		},
		{
			"buffer":0,
			"byteLength":31692,
			"byteOffset":1961412,
			"target":34962
		},
		{
			"buffer":0,
			"byteLength":21128,
			"byteOffset":1993104,
			"target":34962
		},
		{
			"buffer":0,
			"byteLength":28608,
			"byteOffset":2014232,
			"target":34963
		},
		{
			"buffer":0,
			"byteLength":3672,
			"byteOffset":2042840,
			"target":34962
		},
		{
			"buffer":0,
			"byteLength":3672,
			"byteOffset":2046512,
			"target":34962
		},
		{
			"buffer":0,
			"byteLength":2448,
			"byteOffset":2050184,
			"target":34962
		},
		{
			"buffer":0,
			"byteLength":3456,
			"byteOffset":2052632,
			"target":34963
		},
		{
			"buffer":0,
			"byteLength":3672,
			"byteOffset":2056088,
			"target":34962
		},
		{
			"buffer":0,
			"byteLength":3672,
			"byteOffset":2059760,
			"target":34962
		},
		{
			"buffer":0,
			"byteLength":2448,
			"byteOffset":2063432,
			"target":34962
		},
		{
			"buffer":0,
			"byteLength":3456,
			"byteOffset":2065880,
			"target":34963
		}
	],
	"samplers":[
		{
			"magFilter":9729,
			"minFilter":9987
		}
	],
	"buffers":[
		{
			"byteLength":2069336,
			"uri":"Buddhist.bin"
		}
	]
}
