{
	"asset":{
		"generator":"Khronos glTF Blender I/O v4.1.63",
		"version":"2.0"
	},
	"scene":0,
	"scenes":[
		{
			"name":"Scene",
			"nodes":[
				2,
				4,
				6,
				7,
				8,
				9
			]
		}
	],
	"nodes":[
		{
			"mesh":0,
			"name":"blck_Cross"
		},
		{
			"mesh":1,
			"name":"Cross.001"
		},
		{
			"children":[
				0,
				1
			],
			"name":"Cross",
			"rotation":[
				0.7071068286895752,
				0,
				0,
				0.7071068286895752
			],
			"scale":[
				0.009999999776482582,
				0.009999999776482582,
				0.009999999776482582
			]
		},
		{
			"mesh":2,
			"name":"eye_L.001"
		},
		{
			"children":[
				3
			],
			"name":"eye_L",
			"rotation":[
				0.7071068286895752,
				0,
				0,
				0.7071068286895752
			],
			"scale":[
				0.009999999776482582,
				0.009999999776482582,
				0.009999999776482582
			]
		},
		{
			"mesh":3,
			"name":"eye_R.001"
		},
		{
			"children":[
				5
			],
			"name":"eye_R",
			"rotation":[
				0.7071068286895752,
				0,
				0,
				0.7071068286895752
			],
			"scale":[
				0.009999999776482582,
				0.009999999776482582,
				0.009999999776482582
			]
		},
		{
			"mesh":4,
			"name":"body",
			"rotation":[
				0.7071068286895752,
				0,
				0,
				0.7071068286895752
			],
			"scale":[
				0.009999999776482582,
				0.009999999776482582,
				0.009999999776482582
			]
		},
		{
			"mesh":5,
			"name":"haire",
			"rotation":[
				0.7071068286895752,
				0,
				0,
				0.7071068286895752
			],
			"scale":[
				0.009999999776482582,
				0.009999999776482582,
				0.009999999776482582
			]
		},
		{
			"mesh":6,
			"name":"unifrom",
			"rotation":[
				0.7071068286895752,
				0,
				0,
				0.7071068286895752
			],
			"scale":[
				0.009999999776482582,
				0.009999999776482582,
				0.009999999776482582
			]
		}
	],
	"materials":[
		{
			"doubleSided":true,
			"name":"lambert17",
			"pbrMetallicRoughness":{
				"baseColorFactor":[
					0,
					0,
					0,
					1
				],
				"metallicFactor":0,
				"roughnessFactor":0.5527864098548889
			}
		},
		{
			"doubleSided":true,
			"name":"lambert16",
			"pbrMetallicRoughness":{
				"baseColorTexture":{
					"index":0
				},
				"metallicFactor":0,
				"roughnessFactor":0.5527864098548889
			}
		},
		{
			"doubleSided":true,
			"name":"iboll_RP1X2QGM0LX193Y1QTJ25IL9N_R_eyeball_eyeba1",
			"pbrMetallicRoughness":{
				"baseColorTexture":{
					"index":1
				},
				"metallicFactor":0.5,
				"roughnessFactor":0.65576171875
			}
		},
		{
			"doubleSided":true,
			"name":"Body",
			"pbrMetallicRoughness":{
				"baseColorTexture":{
					"index":2
				},
				"metallicFactor":0,
				"roughnessFactor":0.5527864098548889
			}
		},
		{
			"doubleSided":true,
			"name":"lambert20",
			"pbrMetallicRoughness":{
				"baseColorTexture":{
					"index":3
				},
				"metallicFactor":0,
				"roughnessFactor":0.5527864098548889
			}
		},
		{
			"doubleSided":true,
			"name":"lambert19",
			"normalTexture":{
				"index":4
			},
			"pbrMetallicRoughness":{
				"baseColorFactor":[
					0.9821428656578064,
					0.9821428656578064,
					0.9821428656578064,
					1
				],
				"metallicFactor":0,
				"roughnessFactor":0.5527864098548889
			}
		}
	],
	"meshes":[
		{
			"name":"Mesh.015",
			"primitives":[
				{
					"attributes":{
						"POSITION":0,
						"NORMAL":1,
						"TEXCOORD_0":2
					},
					"indices":3,
					"material":0
				}
			]
		},
		{
			"name":"Mesh.014",
			"primitives":[
				{
					"attributes":{
						"POSITION":4,
						"NORMAL":5,
						"TEXCOORD_0":6
					},
					"indices":7,
					"material":1
				}
			]
		},
		{
			"name":"Mesh.017",
			"primitives":[
				{
					"attributes":{
						"POSITION":8,
						"NORMAL":9,
						"TEXCOORD_0":10
					},
					"indices":11,
					"material":2
				}
			]
		},
		{
			"name":"Mesh.018",
			"primitives":[
				{
					"attributes":{
						"POSITION":12,
						"NORMAL":13,
						"TEXCOORD_0":14
					},
					"indices":15,
					"material":2
				}
			]
		},
		{
			"name":"Mesh.020",
			"primitives":[
				{
					"attributes":{
						"POSITION":16,
						"NORMAL":17,
						"TEXCOORD_0":18
					},
					"indices":19,
					"material":3
				}
			]
		},
		{
			"name":"Mesh.021",
			"primitives":[
				{
					"attributes":{
						"POSITION":20,
						"NORMAL":21,
						"TEXCOORD_0":22
					},
					"indices":23,
					"material":4
				}
			]
		},
		{
			"name":"Mesh.022",
			"primitives":[
				{
					"attributes":{
						"POSITION":24,
						"NORMAL":25,
						"TEXCOORD_0":26
					},
					"indices":27,
					"material":5
				}
			]
		}
	],
	"textures":[
		{
			"sampler":0,
			"source":0
		},
		{
			"sampler":0,
			"source":1
		},
		{
			"sampler":0,
			"source":2
		},
		{
			"sampler":0,
			"source":3
		},
		{
			"sampler":0,
			"source":4
		}
	],
	"images":[
		{
			"mimeType":"image/jpeg",
			"name":"Cross_base",
			"uri":"Cross_base.jpg"
		},
		{
			"mimeType":"image/jpeg",
			"name":"eye_Base",
			"uri":"eye_Base.jpg"
		},
		{
			"mimeType":"image/jpeg",
			"name":"Body_base",
			"uri":"Body_base.jpg"
		},
		{
			"mimeType":"image/jpeg",
			"name":"haire_base",
			"uri":"haire_base.jpg"
		},
		{
			"mimeType":"image/jpeg",
			"name":"unifrom_Normal",
			"uri":"unifrom_Normal.jpg"
		}
	],
	"accessors":[
		{
			"bufferView":0,
			"componentType":5126,
			"count":352,
			"max":[
				2.636528968811035,
				0.4337988793849945,
				-31.842714309692383
			],
			"min":[
				-2.636528968811035,
				-5.517879486083984,
				-39.22867965698242
			],
			"type":"VEC3"
		},
		{
			"bufferView":1,
			"componentType":5126,
			"count":352,
			"type":"VEC3"
		},
		{
			"bufferView":2,
			"componentType":5126,
			"count":352,
			"type":"VEC2"
		},
		{
			"bufferView":3,
			"componentType":5123,
			"count":1536,
			"type":"SCALAR"
		},
		{
			"bufferView":4,
			"componentType":5126,
			"count":211505,
			"max":[
				0.7803510427474976,
				0.4987668991088867,
				-29.32186508178711
			],
			"min":[
				-0.6881985664367676,
				0.2138567715883255,
				-31.9758243560791
			],
			"type":"VEC3"
		},
		{
			"bufferView":5,
			"componentType":5126,
			"count":211505,
			"type":"VEC3"
		},
		{
			"bufferView":6,
			"componentType":5126,
			"count":211505,
			"type":"VEC2"
		},
		{
			"bufferView":7,
			"componentType":5125,
			"count":414696,
			"type":"SCALAR"
		},
		{
			"bufferView":8,
			"componentType":5126,
			"count":306,
			"max":[
				-0.45282652974128723,
				-0.4623560905456543,
				-41.869388580322266
			],
			"min":[
				-1.0580112934112549,
				-1.0927447080612183,
				-42.47434616088867
			],
			"type":"VEC3"
		},
		{
			"bufferView":9,
			"componentType":5126,
			"count":306,
			"type":"VEC3"
		},
		{
			"bufferView":10,
			"componentType":5126,
			"count":306,
			"type":"VEC2"
		},
		{
			"bufferView":11,
			"componentType":5123,
			"count":1728,
			"type":"SCALAR"
		},
		{
			"bufferView":12,
			"componentType":5126,
			"count":306,
			"max":[
				1.0513641834259033,
				-0.4327334761619568,
				-41.869388580322266
			],
			"min":[
				0.4462597370147705,
				-1.065050482749939,
				-42.47434616088867
			],
			"type":"VEC3"
		},
		{
			"bufferView":13,
			"componentType":5126,
			"count":306,
			"type":"VEC3"
		},
		{
			"bufferView":14,
			"componentType":5126,
			"count":306,
			"type":"VEC2"
		},
		{
			"bufferView":15,
			"componentType":5123,
			"count":1728,
			"type":"SCALAR"
		},
		{
			"bufferView":16,
			"componentType":5126,
			"count":53946,
			"max":[
				16.0935115814209,
				2.119476318359375,
				-0.05017852783203125
			],
			"min":[
				-16.114797592163086,
				-7.044041633605957,
				-45.53843688964844
			],
			"type":"VEC3"
		},
		{
			"bufferView":17,
			"componentType":5126,
			"count":53946,
			"type":"VEC3"
		},
		{
			"bufferView":18,
			"componentType":5126,
			"count":53946,
			"type":"VEC2"
		},
		{
			"bufferView":19,
			"componentType":5123,
			"count":80982,
			"type":"SCALAR"
		},
		{
			"bufferView":20,
			"componentType":5126,
			"count":1401,
			"max":[
				2.410090923309326,
				0.6164348721504211,
				-40.789737701416016
			],
			"min":[
				-2.7250866889953613,
				-5.431326389312744,
				-45.85136032104492
			],
			"type":"VEC3"
		},
		{
			"bufferView":21,
			"componentType":5126,
			"count":1401,
			"type":"VEC3"
		},
		{
			"bufferView":22,
			"componentType":5126,
			"count":1401,
			"type":"VEC2"
		},
		{
			"bufferView":23,
			"componentType":5123,
			"count":8115,
			"type":"SCALAR"
		},
		{
			"bufferView":24,
			"componentType":5126,
			"count":3443,
			"max":[
				14.902525901794434,
				1.574038028717041,
				-3.39026141166687
			],
			"min":[
				-14.364513397216797,
				-8.75240421295166,
				-39.590049743652344
			],
			"type":"VEC3"
		},
		{
			"bufferView":25,
			"componentType":5126,
			"count":3443,
			"type":"VEC3"
		},
		{
			"bufferView":26,
			"componentType":5126,
			"count":3443,
			"type":"VEC2"
		},
		{
			"bufferView":27,
			"componentType":5123,
			"count":16020,
			"type":"SCALAR"
		}
	],
	"bufferViews":[
		{
			"buffer":0,
			"byteLength":4224,
			"byteOffset":0,
			"target":34962
		},
		{
			"buffer":0,
			"byteLength":4224,
			"byteOffset":4224,
			"target":34962
		},
		{
			"buffer":0,
			"byteLength":2816,
			"byteOffset":8448,
			"target":34962
		},
		{
			"buffer":0,
			"byteLength":3072,
			"byteOffset":11264,
			"target":34963
		},
		{
			"buffer":0,
			"byteLength":2538060,
			"byteOffset":14336,
			"target":34962
		},
		{
			"buffer":0,
			"byteLength":2538060,
			"byteOffset":2552396,
			"target":34962
		},
		{
			"buffer":0,
			"byteLength":1692040,
			"byteOffset":5090456,
			"target":34962
		},
		{
			"buffer":0,
			"byteLength":1658784,
			"byteOffset":6782496,
			"target":34963
		},
		{
			"buffer":0,
			"byteLength":3672,
			"byteOffset":8441280,
			"target":34962
		},
		{
			"buffer":0,
			"byteLength":3672,
			"byteOffset":8444952,
			"target":34962
		},
		{
			"buffer":0,
			"byteLength":2448,
			"byteOffset":8448624,
			"target":34962
		},
		{
			"buffer":0,
			"byteLength":3456,
			"byteOffset":8451072,
			"target":34963
		},
		{
			"buffer":0,
			"byteLength":3672,
			"byteOffset":8454528,
			"target":34962
		},
		{
			"buffer":0,
			"byteLength":3672,
			"byteOffset":8458200,
			"target":34962
		},
		{
			"buffer":0,
			"byteLength":2448,
			"byteOffset":8461872,
			"target":34962
		},
		{
			"buffer":0,
			"byteLength":3456,
			"byteOffset":8464320,
			"target":34963
		},
		{
			"buffer":0,
			"byteLength":647352,
			"byteOffset":8467776,
			"target":34962
		},
		{
			"buffer":0,
			"byteLength":647352,
			"byteOffset":9115128,
			"target":34962
		},
		{
			"buffer":0,
			"byteLength":431568,
			"byteOffset":9762480,
			"target":34962
		},
		{
			"buffer":0,
			"byteLength":161964,
			"byteOffset":10194048,
			"target":34963
		},
		{
			"buffer":0,
			"byteLength":16812,
			"byteOffset":10356012,
			"target":34962
		},
		{
			"buffer":0,
			"byteLength":16812,
			"byteOffset":10372824,
			"target":34962
		},
		{
			"buffer":0,
			"byteLength":11208,
			"byteOffset":10389636,
			"target":34962
		},
		{
			"buffer":0,
			"byteLength":16230,
			"byteOffset":10400844,
			"target":34963
		},
		{
			"buffer":0,
			"byteLength":41316,
			"byteOffset":10417076,
			"target":34962
		},
		{
			"buffer":0,
			"byteLength":41316,
			"byteOffset":10458392,
			"target":34962
		},
		{
			"buffer":0,
			"byteLength":27544,
			"byteOffset":10499708,
			"target":34962
		},
		{
			"buffer":0,
			"byteLength":32040,
			"byteOffset":10527252,
			"target":34963
		}
	],
	"samplers":[
		{
			"magFilter":9729,
			"minFilter":9987
		}
	],
	"buffers":[
		{
			"byteLength":10559292,
			"uri":"Christian.bin"
		}
	]
}
