{
	"asset":{
		"generator":"Khronos glTF Blender I/O v4.1.63",
		"version":"2.0"
	},
	"scene":0,
	"scenes":[
		{
			"name":"Scene",
			"nodes":[
				0,
				1,
				3,
				5
			]
		}
	],
	"nodes":[
		{
			"mesh":0,
			"name":"uniform",
			"rotation":[
				0.7071068286895752,
				0,
				0,
				0.7071068286895752
			],
			"scale":[
				0.009999999776482582,
				0.009999999776482582,
				0.009999999776482582
			]
		},
		{
			"mesh":1,
			"name":"body",
			"rotation":[
				0.7071068286895752,
				0,
				0,
				0.7071068286895752
			],
			"scale":[
				0.009999999776482582,
				0.009999999776482582,
				0.009999999776482582
			]
		},
		{
			"mesh":2,
			"name":"eye_L.001"
		},
		{
			"children":[
				2
			],
			"name":"eye_L",
			"rotation":[
				0.7071068286895752,
				0,
				0,
				0.7071068286895752
			],
			"scale":[
				0.009999999776482582,
				0.009999999776482582,
				0.009999999776482582
			]
		},
		{
			"mesh":3,
			"name":"eye_R.001"
		},
		{
			"children":[
				4
			],
			"name":"eye_R",
			"rotation":[
				0.7071068286895752,
				0,
				0,
				0.7071068286895752
			],
			"scale":[
				0.009999999776482582,
				0.009999999776482582,
				0.009999999776482582
			]
		}
	],
	"materials":[
		{
			"doubleSided":true,
			"name":"lambert9",
			"pbrMetallicRoughness":{
				"baseColorTexture":{
					"index":0
				},
				"metallicFactor":0,
				"roughnessFactor":0.5527864098548889
			}
		},
		{
			"doubleSided":true,
			"name":"lambert3.002",
			"pbrMetallicRoughness":{
				"baseColorTexture":{
					"index":1
				},
				"metallicFactor":0,
				"roughnessFactor":0.5527864098548889
			}
		},
		{
			"doubleSided":true,
			"name":"iboll_RP1X2QGM0LX193Y1QTJ25IL9N_R_eyeball_eyeba1.001",
			"pbrMetallicRoughness":{
				"baseColorTexture":{
					"index":2
				},
				"metallicFactor":0.5,
				"roughnessFactor":0.65576171875
			}
		}
	],
	"meshes":[
		{
			"name":"Mesh.095",
			"primitives":[
				{
					"attributes":{
						"POSITION":0,
						"NORMAL":1,
						"TEXCOORD_0":2
					},
					"indices":3,
					"material":0
				}
			]
		},
		{
			"name":"Mesh.096",
			"primitives":[
				{
					"attributes":{
						"POSITION":4,
						"NORMAL":5,
						"TEXCOORD_0":6
					},
					"indices":7,
					"material":1
				}
			]
		},
		{
			"name":"Mesh.099",
			"primitives":[
				{
					"attributes":{
						"POSITION":8,
						"NORMAL":9,
						"TEXCOORD_0":10
					},
					"indices":11,
					"material":2
				}
			]
		},
		{
			"name":"Mesh.100",
			"primitives":[
				{
					"attributes":{
						"POSITION":12,
						"NORMAL":13,
						"TEXCOORD_0":14
					},
					"indices":15,
					"material":2
				}
			]
		}
	],
	"textures":[
		{
			"sampler":0,
			"source":0
		},
		{
			"sampler":0,
			"source":1
		},
		{
			"sampler":0,
			"source":2
		}
	],
	"images":[
		{
			"mimeType":"image/png",
			"name":"Musalim_uniform_Base",
			"uri":"Musalim_uniform_Base.png"
		},
		{
			"mimeType":"image/png",
			"name":"Body_base",
			"uri":"Body_base.png"
		},
		{
			"mimeType":"image/png",
			"name":"eye_Base",
			"uri":"eye_Base.png"
		}
	],
	"accessors":[
		{
			"bufferView":0,
			"componentType":5126,
			"count":4196,
			"max":[
				13.685393333435059,
				0.360500305891037,
				-3.0163073539733887
			],
			"min":[
				-13.603006362915039,
				-7.397575855255127,
				-39.66566467285156
			],
			"type":"VEC3"
		},
		{
			"bufferView":1,
			"componentType":5126,
			"count":4196,
			"type":"VEC3"
		},
		{
			"bufferView":2,
			"componentType":5126,
			"count":4196,
			"type":"VEC2"
		},
		{
			"bufferView":3,
			"componentType":5123,
			"count":22557,
			"type":"SCALAR"
		},
		{
			"bufferView":4,
			"componentType":5126,
			"count":53946,
			"max":[
				16.0935115814209,
				2.119476318359375,
				-0.05017852783203125
			],
			"min":[
				-16.114797592163086,
				-7.044041633605957,
				-45.53843688964844
			],
			"type":"VEC3"
		},
		{
			"bufferView":5,
			"componentType":5126,
			"count":53946,
			"type":"VEC3"
		},
		{
			"bufferView":6,
			"componentType":5126,
			"count":53946,
			"type":"VEC2"
		},
		{
			"bufferView":7,
			"componentType":5123,
			"count":80982,
			"type":"SCALAR"
		},
		{
			"bufferView":8,
			"componentType":5126,
			"count":306,
			"max":[
				-0.45282652974128723,
				-0.4623560905456543,
				-41.869388580322266
			],
			"min":[
				-1.0580112934112549,
				-1.0927447080612183,
				-42.47434616088867
			],
			"type":"VEC3"
		},
		{
			"bufferView":9,
			"componentType":5126,
			"count":306,
			"type":"VEC3"
		},
		{
			"bufferView":10,
			"componentType":5126,
			"count":306,
			"type":"VEC2"
		},
		{
			"bufferView":11,
			"componentType":5123,
			"count":1728,
			"type":"SCALAR"
		},
		{
			"bufferView":12,
			"componentType":5126,
			"count":306,
			"max":[
				1.0513641834259033,
				-0.4327334761619568,
				-41.869388580322266
			],
			"min":[
				0.4462597370147705,
				-1.065050482749939,
				-42.47434616088867
			],
			"type":"VEC3"
		},
		{
			"bufferView":13,
			"componentType":5126,
			"count":306,
			"type":"VEC3"
		},
		{
			"bufferView":14,
			"componentType":5126,
			"count":306,
			"type":"VEC2"
		},
		{
			"bufferView":15,
			"componentType":5123,
			"count":1728,
			"type":"SCALAR"
		}
	],
	"bufferViews":[
		{
			"buffer":0,
			"byteLength":50352,
			"byteOffset":0,
			"target":34962
		},
		{
			"buffer":0,
			"byteLength":50352,
			"byteOffset":50352,
			"target":34962
		},
		{
			"buffer":0,
			"byteLength":33568,
			"byteOffset":100704,
			"target":34962
		},
		{
			"buffer":0,
			"byteLength":45114,
			"byteOffset":134272,
			"target":34963
		},
		{
			"buffer":0,
			"byteLength":647352,
			"byteOffset":179388,
			"target":34962
		},
		{
			"buffer":0,
			"byteLength":647352,
			"byteOffset":826740,
			"target":34962
		},
		{
			"buffer":0,
			"byteLength":431568,
			"byteOffset":1474092,
			"target":34962
		},
		{
			"buffer":0,
			"byteLength":161964,
			"byteOffset":1905660,
			"target":34963
		},
		{
			"buffer":0,
			"byteLength":3672,
			"byteOffset":2067624,
			"target":34962
		},
		{
			"buffer":0,
			"byteLength":3672,
			"byteOffset":2071296,
			"target":34962
		},
		{
			"buffer":0,
			"byteLength":2448,
			"byteOffset":2074968,
			"target":34962
		},
		{
			"buffer":0,
			"byteLength":3456,
			"byteOffset":2077416,
			"target":34963
		},
		{
			"buffer":0,
			"byteLength":3672,
			"byteOffset":2080872,
			"target":34962
		},
		{
			"buffer":0,
			"byteLength":3672,
			"byteOffset":2084544,
			"target":34962
		},
		{
			"buffer":0,
			"byteLength":2448,
			"byteOffset":2088216,
			"target":34962
		},
		{
			"buffer":0,
			"byteLength":3456,
			"byteOffset":2090664,
			"target":34963
		}
	],
	"samplers":[
		{
			"magFilter":9729,
			"minFilter":9987
		}
	],
	"buffers":[
		{
			"byteLength":2094120,
			"uri":"Muslim.bin"
		}
	]
}
