{
	"asset":{
		"generator":"Khronos glTF Blender I/O v4.1.63",
		"version":"2.0"
	},
	"scene":0,
	"scenes":[
		{
			"name":"Scene",
			"nodes":[
				6,
				7,
				8
			]
		}
	],
	"nodes":[
		{
			"mesh":0,
			"name":"pCube2"
		},
		{
			"mesh":1,
			"name":"polySurface101"
		},
		{
			"children":[
				1
			],
			"name":"pCube32"
		},
		{
			"mesh":2,
			"name":"pCube95"
		},
		{
			"mesh":3,
			"name":"polySurface95"
		},
		{
			"children":[
				0,
				2,
				3,
				4
			],
			"name":"group3"
		},
		{
			"children":[
				5
			],
			"name":"group4",
			"scale":[
				0.03677426651120186,
				0.03677426651120186,
				0.03677426651120186
			]
		},
		{
			"mesh":4,
			"name":"moss_rock_15_ZBrush_defualt_group",
			"rotation":[
				-0.029176928102970123,
				-0.6951319575309753,
				0.0358378067612648,
				0.7173952460289001
			],
			"scale":[
				1.277811050415039,
				1.277811050415039,
				1.277811050415039
			],
			"translation":[
				-3.746657609939575,
				8.738812446594238,
				-0.6374061107635498
			]
		},
		{
			"mesh":5,
			"name":"polySurface103",
			"scale":[
				0.009999999776482582,
				0.009999999776482582,
				0.009999999776482582
			]
		}
	],
	"materials":[
		{
			"doubleSided":true,
			"name":"lambert9",
			"pbrMetallicRoughness":{
				"baseColorTexture":{
					"index":0
				},
				"metallicFactor":0,
				"roughnessFactor":0.5527864098548889
			}
		},
		{
			"doubleSided":true,
			"name":"lambert7",
			"pbrMetallicRoughness":{
				"baseColorTexture":{
					"index":1
				},
				"metallicFactor":0,
				"roughnessFactor":0.5527864098548889
			}
		},
		{
			"doubleSided":true,
			"name":"lambert10",
			"pbrMetallicRoughness":{
				"baseColorTexture":{
					"index":2
				},
				"metallicFactor":0,
				"roughnessFactor":0.5527864098548889
			}
		},
		{
			"doubleSided":true,
			"name":"lambert6",
			"pbrMetallicRoughness":{
				"baseColorTexture":{
					"index":3
				},
				"metallicFactor":0,
				"roughnessFactor":0.5527864098548889
			}
		},
		{
			"doubleSided":true,
			"name":"lambert11",
			"pbrMetallicRoughness":{
				"baseColorTexture":{
					"index":4
				},
				"metallicFactor":0,
				"roughnessFactor":0.5527864098548889
			}
		},
		{
			"doubleSided":true,
			"name":"Default_Material",
			"pbrMetallicRoughness":{
				"baseColorTexture":{
					"index":5
				},
				"metallicFactor":0,
				"roughnessFactor":0.5527864098548889
			}
		}
	],
	"meshes":[
		{
			"name":"Mesh.001",
			"primitives":[
				{
					"attributes":{
						"POSITION":0,
						"NORMAL":1,
						"TEXCOORD_0":2
					},
					"indices":3,
					"material":0
				}
			]
		},
		{
			"name":"Mesh.002",
			"primitives":[
				{
					"attributes":{
						"POSITION":4,
						"NORMAL":5,
						"TEXCOORD_0":6
					},
					"indices":7,
					"material":1
				}
			]
		},
		{
			"name":"Mesh",
			"primitives":[
				{
					"attributes":{
						"POSITION":8,
						"NORMAL":9,
						"TEXCOORD_0":10
					},
					"indices":11,
					"material":2
				}
			]
		},
		{
			"name":"Mesh.003",
			"primitives":[
				{
					"attributes":{
						"POSITION":12,
						"NORMAL":13,
						"TEXCOORD_0":14
					},
					"indices":15,
					"material":3
				}
			]
		},
		{
			"name":"Mesh.004",
			"primitives":[
				{
					"attributes":{
						"POSITION":16,
						"NORMAL":17,
						"TEXCOORD_0":18
					},
					"indices":19,
					"material":4
				}
			]
		},
		{
			"name":"Mesh.005",
			"primitives":[
				{
					"attributes":{
						"POSITION":20,
						"NORMAL":21,
						"TEXCOORD_0":22
					},
					"indices":23,
					"material":5
				}
			]
		}
	],
	"textures":[
		{
			"sampler":0,
			"source":0
		},
		{
			"sampler":0,
			"source":1
		},
		{
			"sampler":0,
			"source":2
		},
		{
			"sampler":0,
			"source":3
		},
		{
			"sampler":0,
			"source":4
		},
		{
			"sampler":0,
			"source":5
		}
	],
	"images":[
		{
			"mimeType":"image/png",
			"name":"lambert4_Base_color",
			"uri":"lambert4_Base_color.png"
		},
		{
			"mimeType":"image/png",
			"name":"lambert6_Base_color",
			"uri":"lambert6_Base_color.png"
		},
		{
			"mimeType":"image/png",
			"name":"lambert3_Base_color",
			"uri":"lambert3_Base_color.png"
		},
		{
			"mimeType":"image/png",
			"name":"Default_Material_Base_color",
			"uri":"Default_Material_Base_color.png"
		},
		{
			"mimeType":"image/png",
			"name":"lambert11_Base_color",
			"uri":"lambert11_Base_color.png"
		},
		{
			"mimeType":"image/png",
			"name":"tempal_bacel_Base_color",
			"uri":"tempal_bacel_Base_color.png"
		}
	],
	"accessors":[
		{
			"bufferView":0,
			"componentType":5126,
			"count":24,
			"max":[
				199.7412109375,
				1.7575607299804688,
				89.43900299072266
			],
			"min":[
				-78.9322509765625,
				-1.2318572998046875,
				-96.40020751953125
			],
			"type":"VEC3"
		},
		{
			"bufferView":1,
			"componentType":5126,
			"count":24,
			"type":"VEC3"
		},
		{
			"bufferView":2,
			"componentType":5126,
			"count":24,
			"type":"VEC2"
		},
		{
			"bufferView":3,
			"componentType":5123,
			"count":36,
			"type":"SCALAR"
		},
		{
			"bufferView":4,
			"componentType":5126,
			"count":34146,
			"max":[
				-13.81797981262207,
				139.39012145996094,
				33.82052993774414
			],
			"min":[
				-68.76471710205078,
				0.9575042724609375,
				-32.8720817565918
			],
			"type":"VEC3"
		},
		{
			"bufferView":5,
			"componentType":5126,
			"count":34146,
			"type":"VEC3"
		},
		{
			"bufferView":6,
			"componentType":5126,
			"count":34146,
			"type":"VEC2"
		},
		{
			"bufferView":7,
			"componentType":5123,
			"count":136206,
			"type":"SCALAR"
		},
		{
			"bufferView":8,
			"componentType":5126,
			"count":2904,
			"max":[
				190.4172821044922,
				31.237422943115234,
				25.7851505279541
			],
			"min":[
				102.97127532958984,
				1.471545696258545,
				-26.00615692138672
			],
			"type":"VEC3"
		},
		{
			"bufferView":9,
			"componentType":5126,
			"count":2904,
			"type":"VEC3"
		},
		{
			"bufferView":10,
			"componentType":5126,
			"count":2904,
			"type":"VEC2"
		},
		{
			"bufferView":11,
			"componentType":5123,
			"count":8310,
			"type":"SCALAR"
		},
		{
			"bufferView":12,
			"componentType":5126,
			"count":17657,
			"max":[
				188.80328369140625,
				57.8039436340332,
				68.1289291381836
			],
			"min":[
				-22.54697036743164,
				-3.0576906204223633,
				-65.46255493164062
			],
			"type":"VEC3"
		},
		{
			"bufferView":13,
			"componentType":5126,
			"count":17657,
			"type":"VEC3"
		},
		{
			"bufferView":14,
			"componentType":5126,
			"count":17657,
			"type":"VEC2"
		},
		{
			"bufferView":15,
			"componentType":5123,
			"count":51135,
			"type":"SCALAR"
		},
		{
			"bufferView":16,
			"componentType":5126,
			"count":5592,
			"max":[
				1.8450106382369995,
				-5.476200580596924,
				0.6719014644622803
			],
			"min":[
				-2.110229969024658,
				-7.021989822387695,
				-0.8320267200469971
			],
			"type":"VEC3"
		},
		{
			"bufferView":17,
			"componentType":5126,
			"count":5592,
			"type":"VEC3"
		},
		{
			"bufferView":18,
			"componentType":5126,
			"count":5592,
			"type":"VEC2"
		},
		{
			"bufferView":19,
			"componentType":5123,
			"count":33024,
			"type":"SCALAR"
		},
		{
			"bufferView":20,
			"componentType":5126,
			"count":2477,
			"max":[
				-40.583656311035156,
				76.07051849365234,
				136.79051208496094
			],
			"min":[
				-263.108154296875,
				-0.4534759521484375,
				-133.30267333984375
			],
			"type":"VEC3"
		},
		{
			"bufferView":21,
			"componentType":5126,
			"count":2477,
			"type":"VEC3"
		},
		{
			"bufferView":22,
			"componentType":5126,
			"count":2477,
			"type":"VEC2"
		},
		{
			"bufferView":23,
			"componentType":5123,
			"count":4443,
			"type":"SCALAR"
		}
	],
	"bufferViews":[
		{
			"buffer":0,
			"byteLength":288,
			"byteOffset":0,
			"target":34962
		},
		{
			"buffer":0,
			"byteLength":288,
			"byteOffset":288,
			"target":34962
		},
		{
			"buffer":0,
			"byteLength":192,
			"byteOffset":576,
			"target":34962
		},
		{
			"buffer":0,
			"byteLength":72,
			"byteOffset":768,
			"target":34963
		},
		{
			"buffer":0,
			"byteLength":409752,
			"byteOffset":840,
			"target":34962
		},
		{
			"buffer":0,
			"byteLength":409752,
			"byteOffset":410592,
			"target":34962
		},
		{
			"buffer":0,
			"byteLength":273168,
			"byteOffset":820344,
			"target":34962
		},
		{
			"buffer":0,
			"byteLength":272412,
			"byteOffset":1093512,
			"target":34963
		},
		{
			"buffer":0,
			"byteLength":34848,
			"byteOffset":1365924,
			"target":34962
		},
		{
			"buffer":0,
			"byteLength":34848,
			"byteOffset":1400772,
			"target":34962
		},
		{
			"buffer":0,
			"byteLength":23232,
			"byteOffset":1435620,
			"target":34962
		},
		{
			"buffer":0,
			"byteLength":16620,
			"byteOffset":1458852,
			"target":34963
		},
		{
			"buffer":0,
			"byteLength":211884,
			"byteOffset":1475472,
			"target":34962
		},
		{
			"buffer":0,
			"byteLength":211884,
			"byteOffset":1687356,
			"target":34962
		},
		{
			"buffer":0,
			"byteLength":141256,
			"byteOffset":1899240,
			"target":34962
		},
		{
			"buffer":0,
			"byteLength":102270,
			"byteOffset":2040496,
			"target":34963
		},
		{
			"buffer":0,
			"byteLength":67104,
			"byteOffset":2142768,
			"target":34962
		},
		{
			"buffer":0,
			"byteLength":67104,
			"byteOffset":2209872,
			"target":34962
		},
		{
			"buffer":0,
			"byteLength":44736,
			"byteOffset":2276976,
			"target":34962
		},
		{
			"buffer":0,
			"byteLength":66048,
			"byteOffset":2321712,
			"target":34963
		},
		{
			"buffer":0,
			"byteLength":29724,
			"byteOffset":2387760,
			"target":34962
		},
		{
			"buffer":0,
			"byteLength":29724,
			"byteOffset":2417484,
			"target":34962
		},
		{
			"buffer":0,
			"byteLength":19816,
			"byteOffset":2447208,
			"target":34962
		},
		{
			"buffer":0,
			"byteLength":8886,
			"byteOffset":2467024,
			"target":34963
		}
	],
	"samplers":[
		{
			"magFilter":9729,
			"minFilter":9987
		}
	],
	"buffers":[
		{
			"byteLength":2475912,
			"uri":"Temple.bin"
		}
	]
}
